<svg width="185" height="55" viewBox="0 0 185 55" fill="none" xmlns="http://www.w3.org/2000/svg">
<g id="Group 48095769">
<path id="Vector" d="M119.228 6.19105C119.171 5.60505 117.715 4.72004 117.274 4.76204C116.833 4.80404 115.138 4.84607 114.83 3.64107C114.522 2.43607 115.138 2.04405 115.306 1.93205C115.474 1.82005 117.071 2.88504 117.996 2.63304C118.92 2.38104 126.737 0.952056 127.802 0.896056C128.867 0.840056 137.888 8.54406 138.504 10.4501C139.12 12.3551 138.266 21.6561 137.593 22.8331C136.921 24.0101 135.155 25.6491 134.273 27.5401C133.39 29.4311 132.256 33.6761 131.709 33.8861C131.163 34.0961 124.103 35.609 123.43 35.693C122.758 35.777 112.168 32.793 109.016 33.466C105.864 34.1381 96.843 36.31 93.481 41.801C90.119 47.292 88.55 51.5791 87.121 51.9151C85.692 52.2511 78.632 53.9321 77.455 54.1001C76.278 54.2681 67.285 49.5611 64.764 47.2081C62.242 44.8551 38.625 24.1791 34.927 23.5061C31.229 22.8341 20.639 25.8591 17.277 26.7001C13.915 27.5401 8.19995 25.4391 6.43495 24.3471C4.66995 23.2541 3.60497 15.97 3.66096 15.13C3.71696 14.29 4.89397 11.936 4.38997 10.591C3.88597 9.24605 0.635971 11.151 0.635971 11.151C0.635971 11.151 3.71797 8.96604 5.62297 9.75004C7.52797 10.534 4.66997 13.616 4.61397 15.017C4.55797 16.418 7.52797 20.06 8.14397 20.452C8.75996 20.844 21.592 19.948 23.049 19.836C24.506 19.724 37.954 15.914 40.643 15.914C43.332 15.914 52.578 22.582 53.867 23.646C55.156 24.711 60.815 23.814 61.431 23.31C62.047 22.806 61.655 19.332 61.991 18.827C62.327 18.323 65.745 18.3231 67.706 19.7791C69.667 21.2361 70.564 25.102 70.62 26.055C70.676 27.008 68.603 26.7271 68.603 27.9601C68.603 29.1931 79.978 36.8691 81.546 36.5331C83.115 36.1971 91.632 34.5161 95.946 32.7791C100.26 31.0421 106.032 20.004 106.032 17.874C106.032 15.744 107.377 13.279 109.17 12.607C110.963 11.935 116.342 9.46904 117.519 8.96504C118.696 8.46004 119.312 7.05905 119.228 6.19105Z" fill="#A10000"/>
<path id="Vector_2" d="M134.319 15.2671C134.241 15.1251 133.463 13.9111 133.427 13.6971C133.391 13.4831 133.195 12.9301 133.052 12.9301C132.909 12.9301 131.607 14.6241 131.5 15.0531C131.393 15.4811 131.25 19.5841 131.357 19.8691C131.464 20.1541 132.407 22.3841 132.819 22.4021C133.23 22.4201 133.213 21.1181 133.284 20.7971C133.356 20.4751 134.602 15.7821 134.319 15.2671Z" fill="#FBFF00"/>
<path id="Vector_3" d="M127.642 13.5491C127.868 13.3881 129.093 10.2911 128.831 10.1721C128.569 10.0531 127.808 10.2671 127.642 10.3621C127.475 10.4571 124.36 11.2421 124.075 11.3371C123.79 11.4321 121.578 15.1181 121.15 15.4041C120.722 15.6901 117.583 16.8311 117.701 17.0211C117.82 17.2111 118.557 17.3541 118.557 17.3541C118.557 17.3541 118.819 18.3051 119.413 18.2821C120.007 18.2581 124.812 16.9741 125.073 16.7601C125.335 16.5451 127.142 13.9061 127.642 13.5491Z" fill="#FBFF00"/>
<path id="Vector_4" d="M127.016 19.3021C126.597 19.0001 125.615 19.3021 125.307 19.6101C124.999 19.9181 121.424 24.3171 121.208 24.3171C120.992 24.3171 115.221 25.0461 114.745 25.3541C114.269 25.6621 109.254 28.8281 109.002 29.1361C108.75 29.4441 109.366 30.0041 109.45 30.0331C109.534 30.0611 110.066 30.7611 110.207 30.7891C110.347 30.8171 114.998 28.8561 115.222 28.8561C115.446 28.8561 122.898 30.0331 123.459 30.0331C124.019 30.0331 127.129 23.5051 127.269 22.8611C127.409 22.2161 127.521 19.6661 127.016 19.3021Z" fill="#FBFF00"/>
<path id="Vector_5" d="M172.317 13.5032C172.317 13.5032 176.631 15.1842 177.024 15.2962C177.416 15.4082 179.601 13.5032 179.601 13.5032C179.601 13.5032 177.864 10.5251 178.705 10.1371C179.545 9.74915 180.554 8.62817 180.554 8.62817L179.433 10.8692C179.433 10.8692 184.364 15.9682 184.364 16.8642C184.364 17.7612 177.752 21.2352 176.463 20.5622C175.175 19.8912 172.317 13.5032 172.317 13.5032Z" fill="#A10000"/>
<path id="Vector_6" d="M57.2819 15.4361C57.9539 14.7641 57.6179 8.54413 57.2819 7.70413C56.9459 6.86313 54.5079 5.51912 53.6679 5.60312C52.8279 5.68712 45.5989 8.71312 44.8429 8.62912C44.0869 8.54512 43.0779 6.52814 43.0779 6.52814C43.0779 6.52814 43.1619 9.97414 44.7589 11.5711C46.3559 13.1681 51.0629 15.5211 52.6599 15.4371C54.2569 15.3531 56.2739 12.3271 56.2739 12.3271L57.2819 15.4361Z" fill="#A10000"/>
</g>
</svg>
