<svg width="185" height="55" viewBox="0 0 185 55" fill="none" xmlns="http://www.w3.org/2000/svg">
<g id="Group 48095768">
<path id="Vector" d="M65.7716 6.19105C65.8286 5.60505 67.2845 4.72004 67.7255 4.76204C68.1665 4.80404 69.8615 4.84607 70.1695 3.64107C70.4775 2.43607 69.8615 2.04405 69.6936 1.93205C69.5256 1.82005 67.9285 2.88504 67.0035 2.63304C66.0795 2.38104 58.2625 0.952056 57.1975 0.896056C56.1325 0.840056 47.1116 8.54406 46.4956 10.4501C45.8796 12.3551 46.7335 21.6561 47.4065 22.8331C48.0785 24.0101 49.8445 25.6491 50.7265 27.5401C51.6095 29.4311 52.7436 33.6761 53.2906 33.8861C53.8366 34.0961 60.8965 35.609 61.5695 35.693C62.2415 35.777 72.8315 32.793 75.9835 33.466C79.1355 34.1381 88.1565 36.31 91.5185 41.801C94.8805 47.292 96.4495 51.5791 97.8785 51.9151C99.3075 52.2511 106.368 53.9321 107.545 54.1001C108.722 54.2681 117.715 49.5611 120.236 47.2081C122.758 44.8551 146.375 24.1791 150.073 23.5061C153.771 22.8341 164.361 25.8591 167.723 26.7001C171.085 27.5401 176.8 25.4391 178.565 24.3471C180.33 23.2541 181.395 15.97 181.339 15.13C181.283 14.29 180.106 11.936 180.61 10.591C181.114 9.24605 184.364 11.151 184.364 11.151C184.364 11.151 181.282 8.96604 179.377 9.75004C177.472 10.534 180.33 13.616 180.386 15.017C180.442 16.418 177.472 20.06 176.856 20.452C176.24 20.844 163.408 19.948 161.951 19.836C160.494 19.724 147.046 15.914 144.357 15.914C141.668 15.914 132.422 22.582 131.133 23.646C129.844 24.711 124.185 23.814 123.569 23.31C122.953 22.806 123.345 19.332 123.009 18.827C122.673 18.323 119.255 18.3231 117.294 19.7791C115.333 21.2361 114.436 25.102 114.38 26.055C114.324 27.008 116.397 26.7271 116.397 27.9601C116.397 29.1931 105.022 36.8691 103.454 36.5331C101.885 36.1971 93.3675 34.5161 89.0536 32.7791C84.7396 31.0421 78.9676 20.004 78.9676 17.874C78.9676 15.744 77.6226 13.279 75.8296 12.607C74.0366 11.935 68.6576 9.46904 67.4806 8.96504C66.3036 8.46004 65.6876 7.05905 65.7716 6.19105Z" fill="#A10000"/>
<path id="Vector_2" d="M50.6804 15.2671C50.7584 15.1251 51.5364 13.9111 51.5724 13.6971C51.6084 13.4831 51.8044 12.9301 51.9474 12.9301C52.0904 12.9301 53.3924 14.6241 53.4994 15.0531C53.6064 15.4811 53.7494 19.5841 53.6424 19.8691C53.5354 20.1541 52.5924 22.3841 52.1804 22.4021C51.7694 22.4201 51.7864 21.1181 51.7154 20.7971C51.6434 20.4751 50.3974 15.7821 50.6804 15.2671Z" fill="#FBFF00"/>
<path id="Vector_3" d="M57.3574 13.5491C57.1314 13.3881 55.9064 10.2911 56.1684 10.1721C56.4304 10.0531 57.1914 10.2671 57.3574 10.3621C57.5244 10.4571 60.6394 11.2421 60.9244 11.3371C61.2094 11.4321 63.4214 15.1181 63.8494 15.4041C64.2774 15.6901 67.4164 16.8311 67.2984 17.0211C67.1794 17.2111 66.4424 17.3541 66.4424 17.3541C66.4424 17.3541 66.1804 18.3051 65.5864 18.2821C64.9924 18.2581 60.1874 16.9741 59.9264 16.7601C59.6644 16.5451 57.8574 13.9061 57.3574 13.5491Z" fill="#FBFF00"/>
<path id="Vector_4" d="M57.9837 19.3021C58.4027 19.0001 59.3847 19.3021 59.6927 19.6101C60.0007 19.9181 63.5757 24.3171 63.7917 24.3171C64.0077 24.3171 69.7787 25.0461 70.2547 25.3541C70.7307 25.6621 75.7457 28.8281 75.9977 29.1361C76.2497 29.4441 75.6337 30.0041 75.5497 30.0331C75.4657 30.0611 74.9337 30.7611 74.7927 30.7891C74.6527 30.8171 70.0017 28.8561 69.7777 28.8561C69.5537 28.8561 62.1017 30.0331 61.5407 30.0331C60.9807 30.0331 57.8707 23.5051 57.7307 22.8611C57.5907 22.2161 57.4787 19.6661 57.9837 19.3021Z" fill="#FBFF00"/>
<path id="Vector_5" d="M12.6827 13.5032C12.6827 13.5032 8.36874 15.1842 7.97574 15.2962C7.58374 15.4082 5.39874 13.5032 5.39874 13.5032C5.39874 13.5032 7.13574 10.5251 6.29474 10.1371C5.45474 9.74915 4.44574 8.62817 4.44574 8.62817L5.56674 10.8692C5.56674 10.8692 0.635742 15.9682 0.635742 16.8642C0.635742 17.7612 7.24774 21.2352 8.53674 20.5622C9.82474 19.8912 12.6827 13.5032 12.6827 13.5032Z" fill="#A10000"/>
<path id="Vector_6" d="M127.718 15.4361C127.046 14.7641 127.382 8.54413 127.718 7.70413C128.054 6.86313 130.492 5.51912 131.332 5.60312C132.172 5.68712 139.401 8.71312 140.157 8.62912C140.913 8.54512 141.922 6.52814 141.922 6.52814C141.922 6.52814 141.838 9.97414 140.241 11.5711C138.644 13.1681 133.937 15.5211 132.34 15.4371C130.743 15.3531 128.726 12.3271 128.726 12.3271L127.718 15.4361Z" fill="#A10000"/>
</g>
</svg>
