<svg width="42" height="42" viewBox="0 0 42 42" fill="none" xmlns="http://www.w3.org/2000/svg">
<g id="WhatsApp Image 2022-09-05 at 11 1 (Traced)" filter="url(#filter0_i_853_2849)">
<path fill-rule="evenodd" clip-rule="evenodd" d="M26.9043 3.21902C26.9903 7.96517 26.9308 9.31362 26.5324 11.633C25.8522 15.5942 24.6384 18.5676 22.5489 21.3915C22.0488 22.0675 20.755 23.6118 20.5374 23.7927C20.1933 24.0785 17.8272 24.4385 15.7395 24.5227C13.6726 24.606 10.9503 24.1731 8.87991 23.4321C7.01554 22.7648 5.46483 21.8441 4.10791 20.5988C3.41138 19.9595 2.3951 18.7937 1.98481 18.1633C1.88905 18.0162 1.70545 17.7792 1.57679 17.6368C1.44812 17.4943 1.32015 17.3021 1.29238 17.2096C1.23144 17.0068 0.80957 16.5715 0.80957 16.7114C0.80957 17.0049 1.27862 17.8675 2.02338 18.9436C3.34827 20.8578 5.72287 22.9531 7.85815 24.0916C9.05185 24.7281 10.8873 25.3502 12.1702 25.5531C13.8152 25.8133 15.8441 25.8962 17.2341 25.7601C18.2649 25.6592 18.5688 25.68 18.5688 25.8513C18.5688 25.9845 15.7264 28.8087 14.0373 30.3538C10.4828 33.6053 9.51507 34.5568 9.51507 34.7999C9.51507 34.8899 9.65 35.014 9.84152 35.0999C10.1112 35.2209 10.5312 35.2452 12.2573 35.2402C15.9538 35.2293 17.3995 35.4165 18.9955 36.1123C21.1599 37.056 22.3153 38.5628 22.3458 40.482C22.3512 40.8246 22.385 41.105 22.421 41.105C22.4569 41.1051 22.4804 41.003 22.4863 40.8936C22.4921 40.7833 22.5494 40.7034 22.5832 40.5796C22.7851 39.8405 22.81 39.1182 22.7175 38.6222C22.5813 37.8926 21.6884 36.644 20.7016 35.8035C19.2535 34.57 16.6284 33.5617 14.2819 33.3376C13.9112 33.3022 13.589 33.241 13.566 33.2018C13.543 33.1625 13.9833 32.7211 14.5444 32.2211C16.0196 30.9061 17.852 29.0441 20.2937 26.379L21.1902 25.4004L22.0341 25.2471C23.447 24.9904 25.5216 24.4573 26.5697 24.0814C27.8023 23.6394 27.9177 23.635 28.0552 24.0242C28.3912 24.9756 28.6397 25.541 28.9268 26.0064C29.8029 27.427 31.6784 28.6661 33.5692 29.0734C34.606 29.2969 36.3205 29.1982 36.9809 29.0191C38.6863 28.5564 39.845 27.3971 40.6291 25.7205C41.1046 24.7035 41.242 24.0808 41.1754 23.2426C41.0808 22.0506 40.4884 21.1248 39.3405 20.3752C37.3929 19.1036 35.1758 19.2301 30.5024 20.8797C29.6289 21.188 28.8636 21.4198 28.8017 21.3948C28.5921 21.3098 28.2223 19.3071 27.9671 16.8746C27.8078 15.3567 27.7153 13.7638 27.537 9.47206C27.4031 6.24715 27.187 3.1952 26.9248 0.828154C26.8774 0.399453 26.8697 1.30403 26.9043 3.21902ZM26.6311 17.8927C26.6843 18.0913 26.8146 18.7298 26.9206 19.3114C27.0265 19.893 27.1925 20.7145 27.2895 21.1368C27.3948 21.5955 27.4339 21.9382 27.3868 21.988C27.1677 22.2194 23.5585 23.3575 23.0435 23.3575C22.8746 23.3575 23.0029 23.094 23.4464 22.5299C24.0895 21.7119 25.4128 19.5211 25.8774 18.5052C26.138 17.9354 26.3925 17.4831 26.4428 17.5003C26.4931 17.5174 26.5778 17.694 26.6311 17.8927ZM35.8239 22.0625C37.7289 22.2737 38.7751 23.7775 37.8958 25.0405C37.6256 25.4285 36.9218 26.0273 36.4169 26.2986C35.9354 26.5574 34.9488 26.8353 34.2822 26.9C32.7476 27.049 31.075 26.33 30.2065 25.148C29.8057 24.6027 29.2396 23.4078 29.3014 23.2377C29.3256 23.1713 29.7706 22.9861 30.2903 22.8262C32.6432 22.1023 34.2202 21.8846 35.8239 22.0625Z" fill="#50FF00"/>
</g>
<defs>
<filter id="filter0_i_853_2849" x="0.80957" y="0.723389" width="40.8813" height="40.8816" filterUnits="userSpaceOnUse" color-interpolation-filters="sRGB">
<feFlood flood-opacity="0" result="BackgroundImageFix"/>
<feBlend mode="normal" in="SourceGraphic" in2="BackgroundImageFix" result="shape"/>
<feColorMatrix in="SourceAlpha" type="matrix" values="0 0 0 0 0 0 0 0 0 0 0 0 0 0 0 0 0 0 127 0" result="hardAlpha"/>
<feOffset dx="0.5" dy="0.5"/>
<feGaussianBlur stdDeviation="0.5"/>
<feComposite in2="hardAlpha" operator="arithmetic" k2="-1" k3="1"/>
<feColorMatrix type="matrix" values="0 0 0 0 0.109804 0 0 0 0 0.0392157 0 0 0 0 0.0392157 0 0 0 1 0"/>
<feBlend mode="normal" in2="shape" result="effect1_innerShadow_853_2849"/>
</filter>
</defs>
</svg>
